<?xml version="1.0" standalone="no"?>
<!DOCTYPE svg PUBLIC "-//W3C//DTD SVG 20000303 Stylable//EN"
  "http://www.w3.org/TR/2000/03/WD-SVG-20000303/DTD/svg-20000303-stylable.dtd">
<svg width="15.9444in" height="2.5in" viewBox="0 0 1148 180">
  <desc>
  A picture created by Pict2SVG
  </desc>
  <g>
<!-- Line({-1109, -1571}) -->
<!-- Line({-1109, -1571}) -->
<!-- Line({-1109, -1571}) -->
<!-- Line({-1109, -1571}) -->
<!-- Line({-1109, -1571}) -->
<!-- Line({-1109, -1571}) -->
<!-- Line({-1109, -1571}) -->
<!-- Line({-1109, -1571}) -->
<!-- Line({194, 0}) -->
<!-- Line({194, 0}) -->
<!-- Line({194, 0}) -->
<!-- Poly(kQDGrafVerbPaint, 0x3f5cc3f0) -->
<polygon style="fill:rgb(50.0008%, 50.0008%, 50.0008%); stroke:rgb(50.0008%, 50.0008%, 50.0008%); stroke-width:0" points="194,0 252,179 135,179 163,102 185,102 167,157 221,157 185,36 194,0 " />
<!-- Line({194, 0}) -->
<!-- Line({194, 0}) -->
<!-- Line({194, 0}) -->
<!-- Rgn(kQDGrafVerbFill, 0x3f5cc3f0) -->
<!-- Line({252, 179}) -->
<line x1="194" y1="0" x2="252" y2="179" style="stroke:rgb(50.0008%, 50.0008%, 50.0008%); stroke-width:0" />
<!-- Line({135, 179}) -->
<line x1="252" y1="179" x2="135" y2="179" style="stroke:rgb(50.0008%, 50.0008%, 50.0008%); stroke-width:0" />
<!-- Line({163, 102}) -->
<line x1="135" y1="179" x2="163" y2="102" style="stroke:rgb(50.0008%, 50.0008%, 50.0008%); stroke-width:0" />
<!-- Line({185, 102}) -->
<line x1="163" y1="102" x2="185" y2="102" style="stroke:rgb(50.0008%, 50.0008%, 50.0008%); stroke-width:0" />
<!-- Line({167, 157}) -->
<line x1="185" y1="102" x2="167" y2="157" style="stroke:rgb(50.0008%, 50.0008%, 50.0008%); stroke-width:0" />
<!-- Line({221, 157}) -->
<line x1="167" y1="157" x2="221" y2="157" style="stroke:rgb(50.0008%, 50.0008%, 50.0008%); stroke-width:0" />
<!-- Line({185, 36}) -->
<line x1="221" y1="157" x2="185" y2="36" style="stroke:rgb(50.0008%, 50.0008%, 50.0008%); stroke-width:0" />
<!-- Line({194, 0}) -->
<line x1="185" y1="36" x2="194" y2="0" style="stroke:rgb(50.0008%, 50.0008%, 50.0008%); stroke-width:0" />
<!-- Line({194, 0}) -->
<!-- Line({194, 0}) -->
<!-- Line({194, 0}) -->
<!-- Line({194, 0}) -->
<!-- Line({194, 0}) -->
<!-- Line({194, 0}) -->
<!-- Line({1049, 44}) -->
<!-- Line({1049, 44}) -->
<!-- Line({1049, 44}) -->
<!-- Poly(kQDGrafVerbPaint, 0x3f5cc3f0) -->
<polygon style="fill:rgb(50.0008%, 50.0008%, 50.0008%); stroke:rgb(50.0008%, 50.0008%, 50.0008%); stroke-width:0" points="1049,44 1116,44 1134,53 1148,76 1148,94 1134,116 1148,139 1148,179 1134,179 1121,170 1121,139 1112,125 1071,125 1062,116 1062,107 1067,103 1116,103 1125,94 1125,80 1112,67 1053,67 1044,58 1044,53 1049,44 " />
<!-- Line({1049, 44}) -->
<!-- Line({1049, 44}) -->
<!-- Line({1049, 44}) -->
<!-- Rgn(kQDGrafVerbFill, 0x3f5cc3f0) -->
<!-- Line({1116, 44}) -->
<line x1="1049" y1="44" x2="1116" y2="44" style="stroke:rgb(50.0008%, 50.0008%, 50.0008%); stroke-width:0" />
<!-- Line({1134, 53}) -->
<line x1="1116" y1="44" x2="1134" y2="53" style="stroke:rgb(50.0008%, 50.0008%, 50.0008%); stroke-width:0" />
<!-- Line({1148, 76}) -->
<line x1="1134" y1="53" x2="1148" y2="76" style="stroke:rgb(50.0008%, 50.0008%, 50.0008%); stroke-width:0" />
<!-- Line({1148, 94}) -->
<line x1="1148" y1="76" x2="1148" y2="94" style="stroke:rgb(50.0008%, 50.0008%, 50.0008%); stroke-width:0" />
<!-- Line({1134, 116}) -->
<line x1="1148" y1="94" x2="1134" y2="116" style="stroke:rgb(50.0008%, 50.0008%, 50.0008%); stroke-width:0" />
<!-- Line({1148, 139}) -->
<line x1="1134" y1="116" x2="1148" y2="139" style="stroke:rgb(50.0008%, 50.0008%, 50.0008%); stroke-width:0" />
<!-- Line({1148, 179}) -->
<line x1="1148" y1="139" x2="1148" y2="179" style="stroke:rgb(50.0008%, 50.0008%, 50.0008%); stroke-width:0" />
<!-- Line({1134, 179}) -->
<line x1="1148" y1="179" x2="1134" y2="179" style="stroke:rgb(50.0008%, 50.0008%, 50.0008%); stroke-width:0" />
<!-- Line({1121, 170}) -->
<line x1="1134" y1="179" x2="1121" y2="170" style="stroke:rgb(50.0008%, 50.0008%, 50.0008%); stroke-width:0" />
<!-- Line({1121, 139}) -->
<line x1="1121" y1="170" x2="1121" y2="139" style="stroke:rgb(50.0008%, 50.0008%, 50.0008%); stroke-width:0" />
<!-- Line({1112, 125}) -->
<line x1="1121" y1="139" x2="1112" y2="125" style="stroke:rgb(50.0008%, 50.0008%, 50.0008%); stroke-width:0" />
<!-- Line({1071, 125}) -->
<line x1="1112" y1="125" x2="1071" y2="125" style="stroke:rgb(50.0008%, 50.0008%, 50.0008%); stroke-width:0" />
<!-- Line({1062, 116}) -->
<line x1="1071" y1="125" x2="1062" y2="116" style="stroke:rgb(50.0008%, 50.0008%, 50.0008%); stroke-width:0" />
<!-- Line({1062, 107}) -->
<line x1="1062" y1="116" x2="1062" y2="107" style="stroke:rgb(50.0008%, 50.0008%, 50.0008%); stroke-width:0" />
<!-- Line({1067, 103}) -->
<line x1="1062" y1="107" x2="1067" y2="103" style="stroke:rgb(50.0008%, 50.0008%, 50.0008%); stroke-width:0" />
<!-- Line({1116, 103}) -->
<line x1="1067" y1="103" x2="1116" y2="103" style="stroke:rgb(50.0008%, 50.0008%, 50.0008%); stroke-width:0" />
<!-- Line({1125, 94}) -->
<line x1="1116" y1="103" x2="1125" y2="94" style="stroke:rgb(50.0008%, 50.0008%, 50.0008%); stroke-width:0" />
<!-- Line({1125, 80}) -->
<line x1="1125" y1="94" x2="1125" y2="80" style="stroke:rgb(50.0008%, 50.0008%, 50.0008%); stroke-width:0" />
<!-- Line({1112, 67}) -->
<line x1="1125" y1="80" x2="1112" y2="67" style="stroke:rgb(50.0008%, 50.0008%, 50.0008%); stroke-width:0" />
<!-- Line({1053, 67}) -->
<line x1="1112" y1="67" x2="1053" y2="67" style="stroke:rgb(50.0008%, 50.0008%, 50.0008%); stroke-width:0" />
<!-- Line({1044, 58}) -->
<line x1="1053" y1="67" x2="1044" y2="58" style="stroke:rgb(50.0008%, 50.0008%, 50.0008%); stroke-width:0" />
<!-- Line({1044, 53}) -->
<line x1="1044" y1="58" x2="1044" y2="53" style="stroke:rgb(50.0008%, 50.0008%, 50.0008%); stroke-width:0" />
<!-- Line({1049, 44}) -->
<line x1="1044" y1="53" x2="1049" y2="44" style="stroke:rgb(50.0008%, 50.0008%, 50.0008%); stroke-width:0" />
<!-- Line({1049, 44}) -->
<!-- Line({1049, 44}) -->
<!-- Line({1049, 44}) -->
<!-- Line({1049, 44}) -->
<!-- Line({1049, 44}) -->
<!-- Line({1049, 44}) -->
<!-- Line({136, 44}) -->
<!-- Line({136, 44}) -->
<!-- Line({136, 44}) -->
<!-- Poly(kQDGrafVerbPaint, 0x3f5cc3f0) -->
<polygon style="fill:rgb(50.0008%, 50.0008%, 50.0008%); stroke:rgb(50.0008%, 50.0008%, 50.0008%); stroke-width:0" points="136,44 136,10 126,0 10,0 0,10 0,171 8,179 127,179 136,170 136,77 126,67 70,67 70,88 105,88 114,97 114,149 105,157 51,157 43,149 43,88 22,67 22,24 30,16 105,16 114,25 114,44 136,44 " />
<!-- Line({136, 44}) -->
<!-- Line({136, 44}) -->
<!-- Line({136, 44}) -->
<!-- Rgn(kQDGrafVerbFill, 0x3f5cc3f0) -->
<!-- Line({136, 10}) -->
<line x1="136" y1="44" x2="136" y2="10" style="stroke:rgb(50.0008%, 50.0008%, 50.0008%); stroke-width:0" />
<!-- Line({126, 0}) -->
<line x1="136" y1="10" x2="126" y2="0" style="stroke:rgb(50.0008%, 50.0008%, 50.0008%); stroke-width:0" />
<!-- Line({10, 0}) -->
<line x1="126" y1="0" x2="10" y2="0" style="stroke:rgb(50.0008%, 50.0008%, 50.0008%); stroke-width:0" />
<!-- Line({0, 10}) -->
<line x1="10" y1="0" x2="0" y2="10" style="stroke:rgb(50.0008%, 50.0008%, 50.0008%); stroke-width:0" />
<!-- Line({0, 171}) -->
<line x1="0" y1="10" x2="0" y2="171" style="stroke:rgb(50.0008%, 50.0008%, 50.0008%); stroke-width:0" />
<!-- Line({8, 179}) -->
<line x1="0" y1="171" x2="8" y2="179" style="stroke:rgb(50.0008%, 50.0008%, 50.0008%); stroke-width:0" />
<!-- Line({127, 179}) -->
<line x1="8" y1="179" x2="127" y2="179" style="stroke:rgb(50.0008%, 50.0008%, 50.0008%); stroke-width:0" />
<!-- Line({136, 170}) -->
<line x1="127" y1="179" x2="136" y2="170" style="stroke:rgb(50.0008%, 50.0008%, 50.0008%); stroke-width:0" />
<!-- Line({136, 77}) -->
<line x1="136" y1="170" x2="136" y2="77" style="stroke:rgb(50.0008%, 50.0008%, 50.0008%); stroke-width:0" />
<!-- Line({126, 67}) -->
<line x1="136" y1="77" x2="126" y2="67" style="stroke:rgb(50.0008%, 50.0008%, 50.0008%); stroke-width:0" />
<!-- Line({70, 67}) -->
<line x1="126" y1="67" x2="70" y2="67" style="stroke:rgb(50.0008%, 50.0008%, 50.0008%); stroke-width:0" />
<!-- Line({70, 88}) -->
<line x1="70" y1="67" x2="70" y2="88" style="stroke:rgb(50.0008%, 50.0008%, 50.0008%); stroke-width:0" />
<!-- Line({105, 88}) -->
<line x1="70" y1="88" x2="105" y2="88" style="stroke:rgb(50.0008%, 50.0008%, 50.0008%); stroke-width:0" />
<!-- Line({114, 97}) -->
<line x1="105" y1="88" x2="114" y2="97" style="stroke:rgb(50.0008%, 50.0008%, 50.0008%); stroke-width:0" />
<!-- Line({114, 149}) -->
<line x1="114" y1="97" x2="114" y2="149" style="stroke:rgb(50.0008%, 50.0008%, 50.0008%); stroke-width:0" />
<!-- Line({105, 157}) -->
<line x1="114" y1="149" x2="105" y2="157" style="stroke:rgb(50.0008%, 50.0008%, 50.0008%); stroke-width:0" />
<!-- Line({51, 157}) -->
<line x1="105" y1="157" x2="51" y2="157" style="stroke:rgb(50.0008%, 50.0008%, 50.0008%); stroke-width:0" />
<!-- Line({43, 149}) -->
<line x1="51" y1="157" x2="43" y2="149" style="stroke:rgb(50.0008%, 50.0008%, 50.0008%); stroke-width:0" />
<!-- Line({43, 88}) -->
<line x1="43" y1="149" x2="43" y2="88" style="stroke:rgb(50.0008%, 50.0008%, 50.0008%); stroke-width:0" />
<!-- Line({22, 67}) -->
<line x1="43" y1="88" x2="22" y2="67" style="stroke:rgb(50.0008%, 50.0008%, 50.0008%); stroke-width:0" />
<!-- Line({22, 24}) -->
<line x1="22" y1="67" x2="22" y2="24" style="stroke:rgb(50.0008%, 50.0008%, 50.0008%); stroke-width:0" />
<!-- Line({30, 16}) -->
<line x1="22" y1="24" x2="30" y2="16" style="stroke:rgb(50.0008%, 50.0008%, 50.0008%); stroke-width:0" />
<!-- Line({105, 16}) -->
<line x1="30" y1="16" x2="105" y2="16" style="stroke:rgb(50.0008%, 50.0008%, 50.0008%); stroke-width:0" />
<!-- Line({114, 25}) -->
<line x1="105" y1="16" x2="114" y2="25" style="stroke:rgb(50.0008%, 50.0008%, 50.0008%); stroke-width:0" />
<!-- Line({114, 44}) -->
<line x1="114" y1="25" x2="114" y2="44" style="stroke:rgb(50.0008%, 50.0008%, 50.0008%); stroke-width:0" />
<!-- Line({136, 44}) -->
<line x1="114" y1="44" x2="136" y2="44" style="stroke:rgb(50.0008%, 50.0008%, 50.0008%); stroke-width:0" />
<!-- Line({136, 44}) -->
<!-- Line({136, 44}) -->
<!-- Line({136, 44}) -->
<!-- Line({136, 44}) -->
<!-- Line({136, 44}) -->
<!-- Line({136, 44}) -->
<!-- Line({297, 179}) -->
<!-- Line({297, 179}) -->
<!-- Line({297, 179}) -->
<!-- Poly(kQDGrafVerbPaint, 0x3f5cc3f0) -->
<polygon style="fill:rgb(50.0008%, 50.0008%, 50.0008%); stroke:rgb(50.0008%, 50.0008%, 50.0008%); stroke-width:0" points="297,179 306,170 306,111 283,89 283,77 293,67 342,67 351,77 351,179 373,179 373,77 383,67 422,67 432,77 432,179 454,179 454,53 445,44 269,44 261,53 261,179 297,179 " />
<!-- Line({297, 179}) -->
<!-- Line({297, 179}) -->
<!-- Line({297, 179}) -->
<!-- Rgn(kQDGrafVerbFill, 0x3f5cc3f0) -->
<!-- Line({306, 170}) -->
<line x1="297" y1="179" x2="306" y2="170" style="stroke:rgb(50.0008%, 50.0008%, 50.0008%); stroke-width:0" />
<!-- Line({306, 111}) -->
<line x1="306" y1="170" x2="306" y2="111" style="stroke:rgb(50.0008%, 50.0008%, 50.0008%); stroke-width:0" />
<!-- Line({283, 89}) -->
<line x1="306" y1="111" x2="283" y2="89" style="stroke:rgb(50.0008%, 50.0008%, 50.0008%); stroke-width:0" />
<!-- Line({283, 77}) -->
<line x1="283" y1="89" x2="283" y2="77" style="stroke:rgb(50.0008%, 50.0008%, 50.0008%); stroke-width:0" />
<!-- Line({293, 67}) -->
<line x1="283" y1="77" x2="293" y2="67" style="stroke:rgb(50.0008%, 50.0008%, 50.0008%); stroke-width:0" />
<!-- Line({342, 67}) -->
<line x1="293" y1="67" x2="342" y2="67" style="stroke:rgb(50.0008%, 50.0008%, 50.0008%); stroke-width:0" />
<!-- Line({351, 77}) -->
<line x1="342" y1="67" x2="351" y2="77" style="stroke:rgb(50.0008%, 50.0008%, 50.0008%); stroke-width:0" />
<!-- Line({351, 179}) -->
<line x1="351" y1="77" x2="351" y2="179" style="stroke:rgb(50.0008%, 50.0008%, 50.0008%); stroke-width:0" />
<!-- Line({373, 179}) -->
<line x1="351" y1="179" x2="373" y2="179" style="stroke:rgb(50.0008%, 50.0008%, 50.0008%); stroke-width:0" />
<!-- Line({373, 77}) -->
<line x1="373" y1="179" x2="373" y2="77" style="stroke:rgb(50.0008%, 50.0008%, 50.0008%); stroke-width:0" />
<!-- Line({383, 67}) -->
<line x1="373" y1="77" x2="383" y2="67" style="stroke:rgb(50.0008%, 50.0008%, 50.0008%); stroke-width:0" />
<!-- Line({422, 67}) -->
<line x1="383" y1="67" x2="422" y2="67" style="stroke:rgb(50.0008%, 50.0008%, 50.0008%); stroke-width:0" />
<!-- Line({432, 77}) -->
<line x1="422" y1="67" x2="432" y2="77" style="stroke:rgb(50.0008%, 50.0008%, 50.0008%); stroke-width:0" />
<!-- Line({432, 179}) -->
<line x1="432" y1="77" x2="432" y2="179" style="stroke:rgb(50.0008%, 50.0008%, 50.0008%); stroke-width:0" />
<!-- Line({454, 179}) -->
<line x1="432" y1="179" x2="454" y2="179" style="stroke:rgb(50.0008%, 50.0008%, 50.0008%); stroke-width:0" />
<!-- Line({454, 53}) -->
<line x1="454" y1="179" x2="454" y2="53" style="stroke:rgb(50.0008%, 50.0008%, 50.0008%); stroke-width:0" />
<!-- Line({445, 44}) -->
<line x1="454" y1="53" x2="445" y2="44" style="stroke:rgb(50.0008%, 50.0008%, 50.0008%); stroke-width:0" />
<!-- Line({269, 44}) -->
<line x1="445" y1="44" x2="269" y2="44" style="stroke:rgb(50.0008%, 50.0008%, 50.0008%); stroke-width:0" />
<!-- Line({261, 53}) -->
<line x1="269" y1="44" x2="261" y2="53" style="stroke:rgb(50.0008%, 50.0008%, 50.0008%); stroke-width:0" />
<!-- Line({261, 179}) -->
<line x1="261" y1="53" x2="261" y2="179" style="stroke:rgb(50.0008%, 50.0008%, 50.0008%); stroke-width:0" />
<!-- Line({297, 179}) -->
<line x1="261" y1="179" x2="297" y2="179" style="stroke:rgb(50.0008%, 50.0008%, 50.0008%); stroke-width:0" />
<!-- Line({297, 179}) -->
<!-- Line({297, 179}) -->
<!-- Line({297, 179}) -->
<!-- Line({297, 179}) -->
<!-- Line({297, 179}) -->
<!-- Line({297, 179}) -->
<!-- Line({479, 102}) -->
<!-- Line({479, 102}) -->
<!-- Line({479, 102}) -->
<!-- Poly(kQDGrafVerbPaint, 0x3f5cc3f0) -->
<polygon style="fill:rgb(50.0008%, 50.0008%, 50.0008%); stroke:rgb(50.0008%, 50.0008%, 50.0008%); stroke-width:0" points="479,102 469,112 469,171 477,179 586,179 586,157 518,157 510,149 510,125 586,125 586,102 479,102 " />
<!-- Line({479, 102}) -->
<!-- Line({479, 102}) -->
<!-- Line({479, 102}) -->
<!-- Rgn(kQDGrafVerbFill, 0x3f5cc3f0) -->
<!-- Line({469, 112}) -->
<line x1="479" y1="102" x2="469" y2="112" style="stroke:rgb(50.0008%, 50.0008%, 50.0008%); stroke-width:0" />
<!-- Line({469, 171}) -->
<line x1="469" y1="112" x2="469" y2="171" style="stroke:rgb(50.0008%, 50.0008%, 50.0008%); stroke-width:0" />
<!-- Line({477, 179}) -->
<line x1="469" y1="171" x2="477" y2="179" style="stroke:rgb(50.0008%, 50.0008%, 50.0008%); stroke-width:0" />
<!-- Line({586, 179}) -->
<line x1="477" y1="179" x2="586" y2="179" style="stroke:rgb(50.0008%, 50.0008%, 50.0008%); stroke-width:0" />
<!-- Line({586, 157}) -->
<line x1="586" y1="179" x2="586" y2="157" style="stroke:rgb(50.0008%, 50.0008%, 50.0008%); stroke-width:0" />
<!-- Line({518, 157}) -->
<line x1="586" y1="157" x2="518" y2="157" style="stroke:rgb(50.0008%, 50.0008%, 50.0008%); stroke-width:0" />
<!-- Line({510, 149}) -->
<line x1="518" y1="157" x2="510" y2="149" style="stroke:rgb(50.0008%, 50.0008%, 50.0008%); stroke-width:0" />
<!-- Line({510, 125}) -->
<line x1="510" y1="149" x2="510" y2="125" style="stroke:rgb(50.0008%, 50.0008%, 50.0008%); stroke-width:0" />
<!-- Line({586, 125}) -->
<line x1="510" y1="125" x2="586" y2="125" style="stroke:rgb(50.0008%, 50.0008%, 50.0008%); stroke-width:0" />
<!-- Line({586, 102}) -->
<line x1="586" y1="125" x2="586" y2="102" style="stroke:rgb(50.0008%, 50.0008%, 50.0008%); stroke-width:0" />
<!-- Line({479, 102}) -->
<line x1="586" y1="102" x2="479" y2="102" style="stroke:rgb(50.0008%, 50.0008%, 50.0008%); stroke-width:0" />
<!-- Line({479, 102}) -->
<!-- Line({479, 102}) -->
<!-- Line({479, 102}) -->
<!-- Line({479, 102}) -->
<!-- Line({479, 102}) -->
<!-- Line({479, 102}) -->
<!-- Line({479, 53}) -->
<!-- Line({479, 53}) -->
<!-- Line({479, 53}) -->
<!-- Poly(kQDGrafVerbPaint, 0x3f5cc3f0) -->
<polygon style="fill:rgb(50.0008%, 50.0008%, 50.0008%); stroke:rgb(50.0008%, 50.0008%, 50.0008%); stroke-width:0" points="479,53 488,44 586,44 586,67 520,67 510,78 510,97 479,97 479,53 " />
<!-- Line({479, 53}) -->
<!-- Line({479, 53}) -->
<!-- Line({479, 53}) -->
<!-- Rgn(kQDGrafVerbFill, 0x3f5cc3f0) -->
<!-- Line({488, 44}) -->
<line x1="479" y1="53" x2="488" y2="44" style="stroke:rgb(50.0008%, 50.0008%, 50.0008%); stroke-width:0" />
<!-- Line({586, 44}) -->
<line x1="488" y1="44" x2="586" y2="44" style="stroke:rgb(50.0008%, 50.0008%, 50.0008%); stroke-width:0" />
<!-- Line({586, 67}) -->
<line x1="586" y1="44" x2="586" y2="67" style="stroke:rgb(50.0008%, 50.0008%, 50.0008%); stroke-width:0" />
<!-- Line({520, 67}) -->
<line x1="586" y1="67" x2="520" y2="67" style="stroke:rgb(50.0008%, 50.0008%, 50.0008%); stroke-width:0" />
<!-- Line({510, 78}) -->
<line x1="520" y1="67" x2="510" y2="78" style="stroke:rgb(50.0008%, 50.0008%, 50.0008%); stroke-width:0" />
<!-- Line({510, 97}) -->
<line x1="510" y1="78" x2="510" y2="97" style="stroke:rgb(50.0008%, 50.0008%, 50.0008%); stroke-width:0" />
<!-- Line({479, 97}) -->
<line x1="510" y1="97" x2="479" y2="97" style="stroke:rgb(50.0008%, 50.0008%, 50.0008%); stroke-width:0" />
<!-- Line({479, 53}) -->
<line x1="479" y1="97" x2="479" y2="53" style="stroke:rgb(50.0008%, 50.0008%, 50.0008%); stroke-width:0" />
<!-- Line({479, 53}) -->
<!-- Line({479, 53}) -->
<!-- Line({479, 53}) -->
<!-- Line({479, 53}) -->
<!-- Line({479, 53}) -->
<!-- Line({479, 53}) -->
<!-- Line({676, 0}) -->
<!-- Line({676, 0}) -->
<!-- Line({676, 0}) -->
<!-- Poly(kQDGrafVerbPaint, 0x3f5cc3f0) -->
<polygon style="fill:rgb(50.0008%, 50.0008%, 50.0008%); stroke:rgb(50.0008%, 50.0008%, 50.0008%); stroke-width:0" points="676,0 666,10 666,171 674,179 776,179 784,171 784,139 766,157 718,157 710,149 710,32 720,22 757,22 766,31 766,144 784,126 784,10 774,0 676,0 " />
<!-- Line({676, 0}) -->
<!-- Line({676, 0}) -->
<!-- Line({676, 0}) -->
<!-- Rgn(kQDGrafVerbFill, 0x3f5cc3f0) -->
<!-- Line({666, 10}) -->
<line x1="676" y1="0" x2="666" y2="10" style="stroke:rgb(50.0008%, 50.0008%, 50.0008%); stroke-width:0" />
<!-- Line({666, 171}) -->
<line x1="666" y1="10" x2="666" y2="171" style="stroke:rgb(50.0008%, 50.0008%, 50.0008%); stroke-width:0" />
<!-- Line({674, 179}) -->
<line x1="666" y1="171" x2="674" y2="179" style="stroke:rgb(50.0008%, 50.0008%, 50.0008%); stroke-width:0" />
<!-- Line({776, 179}) -->
<line x1="674" y1="179" x2="776" y2="179" style="stroke:rgb(50.0008%, 50.0008%, 50.0008%); stroke-width:0" />
<!-- Line({784, 171}) -->
<line x1="776" y1="179" x2="784" y2="171" style="stroke:rgb(50.0008%, 50.0008%, 50.0008%); stroke-width:0" />
<!-- Line({784, 139}) -->
<line x1="784" y1="171" x2="784" y2="139" style="stroke:rgb(50.0008%, 50.0008%, 50.0008%); stroke-width:0" />
<!-- Line({766, 157}) -->
<line x1="784" y1="139" x2="766" y2="157" style="stroke:rgb(50.0008%, 50.0008%, 50.0008%); stroke-width:0" />
<!-- Line({718, 157}) -->
<line x1="766" y1="157" x2="718" y2="157" style="stroke:rgb(50.0008%, 50.0008%, 50.0008%); stroke-width:0" />
<!-- Line({710, 149}) -->
<line x1="718" y1="157" x2="710" y2="149" style="stroke:rgb(50.0008%, 50.0008%, 50.0008%); stroke-width:0" />
<!-- Line({710, 32}) -->
<line x1="710" y1="149" x2="710" y2="32" style="stroke:rgb(50.0008%, 50.0008%, 50.0008%); stroke-width:0" />
<!-- Line({720, 22}) -->
<line x1="710" y1="32" x2="720" y2="22" style="stroke:rgb(50.0008%, 50.0008%, 50.0008%); stroke-width:0" />
<!-- Line({757, 22}) -->
<line x1="720" y1="22" x2="757" y2="22" style="stroke:rgb(50.0008%, 50.0008%, 50.0008%); stroke-width:0" />
<!-- Line({766, 31}) -->
<line x1="757" y1="22" x2="766" y2="31" style="stroke:rgb(50.0008%, 50.0008%, 50.0008%); stroke-width:0" />
<!-- Line({766, 144}) -->
<line x1="766" y1="31" x2="766" y2="144" style="stroke:rgb(50.0008%, 50.0008%, 50.0008%); stroke-width:0" />
<!-- Line({784, 126}) -->
<line x1="766" y1="144" x2="784" y2="126" style="stroke:rgb(50.0008%, 50.0008%, 50.0008%); stroke-width:0" />
<!-- Line({784, 10}) -->
<line x1="784" y1="126" x2="784" y2="10" style="stroke:rgb(50.0008%, 50.0008%, 50.0008%); stroke-width:0" />
<!-- Line({774, 0}) -->
<line x1="784" y1="10" x2="774" y2="0" style="stroke:rgb(50.0008%, 50.0008%, 50.0008%); stroke-width:0" />
<!-- Line({676, 0}) -->
<line x1="774" y1="0" x2="676" y2="0" style="stroke:rgb(50.0008%, 50.0008%, 50.0008%); stroke-width:0" />
<!-- Line({676, 0}) -->
<!-- Line({676, 0}) -->
<!-- Line({676, 0}) -->
<!-- Line({676, 0}) -->
<!-- Line({676, 0}) -->
<!-- Line({676, 0}) -->
<!-- Line({810, 44}) -->
<!-- Line({810, 44}) -->
<!-- Line({810, 44}) -->
<!-- Poly(kQDGrafVerbPaint, 0x3f5cc3f0) -->
<polygon style="fill:rgb(50.0008%, 50.0008%, 50.0008%); stroke:rgb(50.0008%, 50.0008%, 50.0008%); stroke-width:0" points="810,44 801,53 801,125 828,152 828,170 837,179 891,179 900,170 900,125 900,44 882,44 882,157 864,157 855,148 855,67 833,44 810,44 " />
<!-- Line({810, 44}) -->
<!-- Line({810, 44}) -->
<!-- Line({810, 44}) -->
<!-- Rgn(kQDGrafVerbFill, 0x3f5cc3f0) -->
<!-- Line({801, 53}) -->
<line x1="810" y1="44" x2="801" y2="53" style="stroke:rgb(50.0008%, 50.0008%, 50.0008%); stroke-width:0" />
<!-- Line({801, 125}) -->
<line x1="801" y1="53" x2="801" y2="125" style="stroke:rgb(50.0008%, 50.0008%, 50.0008%); stroke-width:0" />
<!-- Line({828, 152}) -->
<line x1="801" y1="125" x2="828" y2="152" style="stroke:rgb(50.0008%, 50.0008%, 50.0008%); stroke-width:0" />
<!-- Line({828, 170}) -->
<line x1="828" y1="152" x2="828" y2="170" style="stroke:rgb(50.0008%, 50.0008%, 50.0008%); stroke-width:0" />
<!-- Line({837, 179}) -->
<line x1="828" y1="170" x2="837" y2="179" style="stroke:rgb(50.0008%, 50.0008%, 50.0008%); stroke-width:0" />
<!-- Line({891, 179}) -->
<line x1="837" y1="179" x2="891" y2="179" style="stroke:rgb(50.0008%, 50.0008%, 50.0008%); stroke-width:0" />
<!-- Line({900, 170}) -->
<line x1="891" y1="179" x2="900" y2="170" style="stroke:rgb(50.0008%, 50.0008%, 50.0008%); stroke-width:0" />
<!-- Line({900, 125}) -->
<line x1="900" y1="170" x2="900" y2="125" style="stroke:rgb(50.0008%, 50.0008%, 50.0008%); stroke-width:0" />
<!-- Line({900, 44}) -->
<line x1="900" y1="125" x2="900" y2="44" style="stroke:rgb(50.0008%, 50.0008%, 50.0008%); stroke-width:0" />
<!-- Line({882, 44}) -->
<line x1="900" y1="44" x2="882" y2="44" style="stroke:rgb(50.0008%, 50.0008%, 50.0008%); stroke-width:0" />
<!-- Line({882, 157}) -->
<line x1="882" y1="44" x2="882" y2="157" style="stroke:rgb(50.0008%, 50.0008%, 50.0008%); stroke-width:0" />
<!-- Line({864, 157}) -->
<line x1="882" y1="157" x2="864" y2="157" style="stroke:rgb(50.0008%, 50.0008%, 50.0008%); stroke-width:0" />
<!-- Line({855, 148}) -->
<line x1="864" y1="157" x2="855" y2="148" style="stroke:rgb(50.0008%, 50.0008%, 50.0008%); stroke-width:0" />
<!-- Line({855, 67}) -->
<line x1="855" y1="148" x2="855" y2="67" style="stroke:rgb(50.0008%, 50.0008%, 50.0008%); stroke-width:0" />
<!-- Line({833, 44}) -->
<line x1="855" y1="67" x2="833" y2="44" style="stroke:rgb(50.0008%, 50.0008%, 50.0008%); stroke-width:0" />
<!-- Line({810, 44}) -->
<line x1="833" y1="44" x2="810" y2="44" style="stroke:rgb(50.0008%, 50.0008%, 50.0008%); stroke-width:0" />
<!-- Line({810, 44}) -->
<!-- Line({810, 44}) -->
<!-- Line({810, 44}) -->
<!-- Line({810, 44}) -->
<!-- Line({810, 44}) -->
<!-- Line({810, 44}) -->
<!-- Line({928, 102}) -->
<!-- Line({928, 102}) -->
<!-- Line({928, 102}) -->
<!-- Poly(kQDGrafVerbPaint, 0x3f5cc3f0) -->
<polygon style="fill:rgb(50.0008%, 50.0008%, 50.0008%); stroke:rgb(50.0008%, 50.0008%, 50.0008%); stroke-width:0" points="928,102 918,112 918,171 926,179 1035,179 1035,157 967,157 959,149 959,125 1035,125 1035,102 928,102 " />
<!-- Line({928, 102}) -->
<!-- Line({928, 102}) -->
<!-- Line({928, 102}) -->
<!-- Rgn(kQDGrafVerbFill, 0x3f5cc3f0) -->
<!-- Line({918, 112}) -->
<line x1="928" y1="102" x2="918" y2="112" style="stroke:rgb(50.0008%, 50.0008%, 50.0008%); stroke-width:0" />
<!-- Line({918, 171}) -->
<line x1="918" y1="112" x2="918" y2="171" style="stroke:rgb(50.0008%, 50.0008%, 50.0008%); stroke-width:0" />
<!-- Line({926, 179}) -->
<line x1="918" y1="171" x2="926" y2="179" style="stroke:rgb(50.0008%, 50.0008%, 50.0008%); stroke-width:0" />
<!-- Line({1035, 179}) -->
<line x1="926" y1="179" x2="1035" y2="179" style="stroke:rgb(50.0008%, 50.0008%, 50.0008%); stroke-width:0" />
<!-- Line({1035, 157}) -->
<line x1="1035" y1="179" x2="1035" y2="157" style="stroke:rgb(50.0008%, 50.0008%, 50.0008%); stroke-width:0" />
<!-- Line({967, 157}) -->
<line x1="1035" y1="157" x2="967" y2="157" style="stroke:rgb(50.0008%, 50.0008%, 50.0008%); stroke-width:0" />
<!-- Line({959, 149}) -->
<line x1="967" y1="157" x2="959" y2="149" style="stroke:rgb(50.0008%, 50.0008%, 50.0008%); stroke-width:0" />
<!-- Line({959, 125}) -->
<line x1="959" y1="149" x2="959" y2="125" style="stroke:rgb(50.0008%, 50.0008%, 50.0008%); stroke-width:0" />
<!-- Line({1035, 125}) -->
<line x1="959" y1="125" x2="1035" y2="125" style="stroke:rgb(50.0008%, 50.0008%, 50.0008%); stroke-width:0" />
<!-- Line({1035, 102}) -->
<line x1="1035" y1="125" x2="1035" y2="102" style="stroke:rgb(50.0008%, 50.0008%, 50.0008%); stroke-width:0" />
<!-- Line({928, 102}) -->
<line x1="1035" y1="102" x2="928" y2="102" style="stroke:rgb(50.0008%, 50.0008%, 50.0008%); stroke-width:0" />
<!-- Line({928, 102}) -->
<!-- Line({928, 102}) -->
<!-- Line({928, 102}) -->
<!-- Line({928, 102}) -->
<!-- Line({928, 102}) -->
<!-- Line({928, 102}) -->
<!-- Line({928, 53}) -->
<!-- Line({928, 53}) -->
<!-- Line({928, 53}) -->
<!-- Poly(kQDGrafVerbPaint, 0x3f5cc3f0) -->
<polygon style="fill:rgb(50.0008%, 50.0008%, 50.0008%); stroke:rgb(50.0008%, 50.0008%, 50.0008%); stroke-width:0" points="928,53 937,44 1035,44 1035,67 969,67 959,78 959,97 928,97 928,53 " />
<!-- Line({928, 53}) -->
<!-- Line({928, 53}) -->
<!-- Line({928, 53}) -->
<!-- Rgn(kQDGrafVerbFill, 0x3f5cc3f0) -->
<!-- Line({937, 44}) -->
<line x1="928" y1="53" x2="937" y2="44" style="stroke:rgb(50.0008%, 50.0008%, 50.0008%); stroke-width:0" />
<!-- Line({1035, 44}) -->
<line x1="937" y1="44" x2="1035" y2="44" style="stroke:rgb(50.0008%, 50.0008%, 50.0008%); stroke-width:0" />
<!-- Line({1035, 67}) -->
<line x1="1035" y1="44" x2="1035" y2="67" style="stroke:rgb(50.0008%, 50.0008%, 50.0008%); stroke-width:0" />
<!-- Line({969, 67}) -->
<line x1="1035" y1="67" x2="969" y2="67" style="stroke:rgb(50.0008%, 50.0008%, 50.0008%); stroke-width:0" />
<!-- Line({959, 78}) -->
<line x1="969" y1="67" x2="959" y2="78" style="stroke:rgb(50.0008%, 50.0008%, 50.0008%); stroke-width:0" />
<!-- Line({959, 97}) -->
<line x1="959" y1="78" x2="959" y2="97" style="stroke:rgb(50.0008%, 50.0008%, 50.0008%); stroke-width:0" />
<!-- Line({928, 97}) -->
<line x1="959" y1="97" x2="928" y2="97" style="stroke:rgb(50.0008%, 50.0008%, 50.0008%); stroke-width:0" />
<!-- Line({928, 53}) -->
<line x1="928" y1="97" x2="928" y2="53" style="stroke:rgb(50.0008%, 50.0008%, 50.0008%); stroke-width:0" />
  </g>
</svg>
