<?xml version="1.0" standalone="no"?>
<!DOCTYPE svg PUBLIC "-//W3C//DTD SVG 20000303 Stylable//EN"
  "http://www.w3.org/TR/2000/03/WD-SVG-20000303/DTD/svg-20000303-stylable.dtd">
<svg width="9.11111in" height="2.5in" viewBox="0 0 656 180">
  <desc>
  A picture created by Pict2SVG
  </desc>
  <g>
<!-- Line({-100, -100}) -->
<line x1="-99" y1="-99" x2="-100" y2="-100" style="stroke:rgb(0%, 0%, 0%); stroke-width:1" />
<!-- Line({0, 0}) -->
<line x1="1" y1="1" x2="0" y2="0" style="stroke:rgb(0%, 0%, 0%); stroke-width:0" />
<!-- Line({656, 180}) -->
<line x1="655" y1="179" x2="656" y2="180" style="stroke:rgb(0%, 0%, 0%); stroke-width:0" />
<!-- Line({-100, -100}) -->
<line x1="-99" y1="-99" x2="-100" y2="-100" style="stroke:rgb(0%, 0%, 0%); stroke-width:1" />
<!-- Poly(kQDGrafVerbPaint, 0x3f5cc430) -->
<polygon style="fill:rgb(0%, 0%, 0%); stroke:rgb(0%, 0%, 0%); stroke-width:1" points="59,0 117,180 0,180 27,104 50,104 32,158 86,158 50,36 59,0 " />
<!-- Poly(kQDGrafVerbPaint, 0x3f5cc430) -->
<polygon style="fill:rgb(0%, 0%, 0%); stroke:rgb(0%, 0%, 0%); stroke-width:1" points="109,45 176,45 194,54 208,77 208,95 194,117 208,140 208,180 194,180 181,171 181,140 172,126 131,126 122,117 122,108 127,104 176,104 185,95 185,81 172,68 113,68 104,59 104,54 109,45 " />
<!-- Poly(kQDGrafVerbPaint, 0x3f5cc430) -->
<polygon style="fill:rgb(0%, 0%, 0%); stroke:rgb(0%, 0%, 0%); stroke-width:1" points="348,158 434,158 443,153 443,144 402,90 402,63 425,41 461,41 474,59 470,63 434,63 425,68 425,86 456,126 465,149 456,171 443,180 348,180 339,176 348,158 " />
<!-- Poly(kQDGrafVerbPaint, 0x3f5cc430) -->
<polygon style="fill:rgb(0%, 0%, 0%); stroke:rgb(0%, 0%, 0%); stroke-width:1" points="277,0 335,180 218,180 245,104 268,104 250,158 304,158 268,36 277,0 " />
<!-- Poly(kQDGrafVerbPaint, 0x3f5cc430) -->
<polygon style="fill:rgb(0%, 0%, 0%); stroke:rgb(0%, 0%, 0%); stroke-width:1" points="472,180 521,18 530,9 539,32 517,108 557,108 566,126 512,126 494,180 472,180 " />
<!-- Poly(kQDGrafVerbPaint, 0x3f5cc430) -->
<polygon style="fill:rgb(0%, 0%, 0%); stroke:rgb(0%, 0%, 0%); stroke-width:1" points="557,180 607,18 616,9 625,32 580,180 557,180 " />
<!-- Poly(kQDGrafVerbPaint, 0x3f5cc430) -->
<polygon style="fill:rgb(0%, 0%, 0%); stroke:rgb(0%, 0%, 0%); stroke-width:1" points="607,180 638,72 647,63 656,86 629,180 607,180 " />
  </g>
</svg>
